<?xml version="1.0" encoding="utf-8"?>
<!-- Generator: Adobe Illustrator 16.2.1, SVG Export Plug-In . SVG Version: 6.00 Build 0)  -->
<!DOCTYPE svg PUBLIC "-//W3C//DTD SVG 1.1//EN" "http://www.w3.org/Graphics/SVG/1.1/DTD/svg11.dtd">
<svg version="1.1" id="Layer_1" xmlns="http://www.w3.org/2000/svg" xmlns:xlink="http://www.w3.org/1999/xlink" x="0px" y="0px"
	 width="612px" height="792px" viewBox="0 0 612 792" enable-background="new 0 0 612 792" xml:space="preserve">
<polygon fill="#262262" stroke="#FFFFFF" stroke-width="2" stroke-miterlimit="10" points="470.495,201.449 433.497,201.428 
	471.431,315.451 508.43,315.473 "/>
<polygon fill="#262262" stroke="#FFFFFF" stroke-width="2" stroke-miterlimit="10" points="182.484,201.449 145.485,201.428 
	183.418,315.451 220.418,315.473 "/>
<polygon fill="#262262" stroke="#FFFFFF" stroke-width="2" stroke-miterlimit="10" points="391.829,201.449 354.831,201.428 
	392.765,315.451 429.764,315.473 "/>
<polygon fill="#224999" stroke="#FFFFFF" stroke-width="2" stroke-miterlimit="10" points="142.007,315.428 105.007,315.428 
	143.007,201.428 180.007,201.428 "/>
<polygon fill="#224999" stroke="#FFFFFF" stroke-width="2" stroke-miterlimit="10" points="220.007,315.428 183.007,315.428 
	221.007,201.428 258.007,201.428 "/>
<rect x="105.451" y="322.555" fill="none" width="409.075" height="27.205"/>
<text transform="matrix(1 0 0 1 105.4497 345.9907)" fill="#224999" font-family="'AvenirNextLTPro-Bold'" font-size="31" letter-spacing="6">WEB DEVELOPMENT</text>
<line fill="none" stroke="#262262" stroke-width="7" stroke-miterlimit="10" x1="405.007" y1="290" x2="497.007" y2="290"/>
<polygon fill="#224999" stroke="#FFFFFF" stroke-width="2" stroke-miterlimit="10" points="430.852,315.428 393.852,315.428 
	431.852,201.428 468.852,201.428 "/>
<g>
	<g>
		<path fill="#224999" d="M305.904,305.222c-1.688,0-3.057-1.366-3.057-3.054v-92.45c0-1.688,1.368-3.055,3.057-3.055
			c1.686,0,3.055,1.366,3.055,3.055v92.45C308.959,303.855,307.59,305.222,305.904,305.222z"/>
	</g>
	<g>
		<path fill="#224999" d="M305.904,305.222c-1.688,0-3.057-1.366-3.057-3.054v-92.45c0-1.688,1.368-3.055,3.057-3.055
			c1.686,0,3.055,1.366,3.055,3.055v92.45C308.959,303.855,307.59,305.222,305.904,305.222z"/>
	</g>
	<g>
		<path fill="#224999" d="M352.129,258.997h-92.452c-1.686,0-3.054-1.368-3.054-3.053c0-1.688,1.368-3.056,3.054-3.056h92.452
			c1.688,0,3.054,1.368,3.054,3.056C355.183,257.629,353.816,258.997,352.129,258.997z"/>
	</g>
	<g>
		<path fill="#224999" d="M306.274,307.499c-28.63,0-51.922-23.292-51.922-51.922c0-28.627,23.292-51.922,51.922-51.922
			s51.922,23.294,51.922,51.922C358.196,284.207,334.904,307.499,306.274,307.499z M306.274,209.765
			c-25.262,0-45.814,20.551-45.814,45.812c0,25.261,20.553,45.815,45.814,45.815c25.263,0,45.812-20.554,45.812-45.815
			C352.086,230.316,331.537,209.765,306.274,209.765z"/>
	</g>
	<g>
		<path fill="#224999" d="M306.275,307.501c-1.191,0-2.32-0.701-2.814-1.865c-0.656-1.555,0.069-3.348,1.623-4.003
			c27.332-11.562,26.239-42.826,26.14-44.829c-3.389-34.585-26.174-47.283-26.402-47.408c-1.483-0.801-2.038-2.655-1.233-4.139
			c0.802-1.483,2.656-2.038,4.14-1.233c1.056,0.571,25.905,14.422,29.582,52.255c0.004,0.04,0.007,0.079,0.007,0.119
			c0.023,0.381,0.504,9.472-2.868,20.259c-4.52,14.465-13.851,25.046-26.984,30.601
			C307.075,307.423,306.673,307.501,306.275,307.501z"/>
	</g>
	<g>
		<path fill="#224999" d="M305.279,307.499c-0.489,0-0.986-0.118-1.449-0.367c-1.055-0.571-25.901-14.423-29.58-52.256
			c-0.003-0.039-0.007-0.079-0.009-0.118c-0.021-0.381-0.504-9.472,2.868-20.26c4.521-14.463,13.852-25.046,26.985-30.601
			c1.553-0.661,3.346,0.071,4.004,1.622c0.656,1.555-0.068,3.346-1.623,4.003c-27.334,11.564-26.238,42.826-26.139,44.829
			c3.372,34.406,25.468,46.897,26.41,47.412c1.474,0.809,2.023,2.662,1.217,4.141C307.409,306.924,306.361,307.499,305.279,307.499z
			"/>
	</g>
	<g>
		<path fill="#224999" d="M307.426,240.32c-0.794,0-1.283-0.035-1.399-0.043c-0.043-0.004-0.089-0.009-0.13-0.013
			c-12.403-1.542-22.005-5.041-28.538-10.396c-5.146-4.221-6.453-8.106-6.584-8.536c-0.495-1.613,0.409-3.321,2.021-3.817
			c1.598-0.489,3.289,0.393,3.803,1.977c0.107,0.294,4.476,11.512,29.971,14.7c1.226,0.083,17.608,0.789,30.38-15.632
			c1.035-1.332,2.955-1.572,4.286-0.536c1.331,1.036,1.57,2.954,0.535,4.286C328.79,239,312.314,240.32,307.426,240.32z"/>
	</g>
	<g>
		<path fill="#224999" d="M339.359,293.005c-1.291,0-2.487-0.824-2.904-2.111c-0.108-0.293-4.476-11.51-29.971-14.7
			c-1.229-0.082-17.608-0.789-30.379,15.632c-1.036,1.333-2.954,1.573-4.286,0.536c-1.333-1.036-1.572-2.955-0.535-4.287
			c15.092-19.404,34.906-18.031,35.743-17.967c0.043,0.002,0.089,0.008,0.131,0.013c12.402,1.543,22.006,5.039,28.537,10.395
			c5.147,4.22,6.451,8.109,6.584,8.538c0.497,1.611-0.41,3.32-2.021,3.815C339.959,292.961,339.655,293.005,339.359,293.005z"/>
	</g>
</g>
</svg>
